<?xml version="1.0" encoding="UTF-8" standalone="no"?>
<!-- Created with Inkscape (http://www.inkscape.org/) -->

<svg
   width="99.999992mm"
   height="100.00001mm"
   viewBox="0 0 99.999992 100.00001"
   version="1.1"
   id="svg1"
   xml:space="preserve"
   xmlns:inkscape="http://www.inkscape.org/namespaces/inkscape"
   xmlns:sodipodi="http://sodipodi.sourceforge.net/DTD/sodipodi-0.dtd"
   xmlns="http://www.w3.org/2000/svg"
   xmlns:svg="http://www.w3.org/2000/svg"><sodipodi:namedview
     id="namedview1"
     pagecolor="#ffffff"
     bordercolor="#000000"
     borderopacity="0.25"
     inkscape:showpageshadow="2"
     inkscape:pageopacity="0.0"
     inkscape:pagecheckerboard="0"
     inkscape:deskcolor="#d1d1d1"
     inkscape:document-units="mm"><inkscape:page
       x="0"
       y="0"
       width="99.999992"
       height="100.00001"
       id="page2"
       margin="0"
       bleed="0" /></sodipodi:namedview><defs
     id="defs1" /><g
     inkscape:label="Camada 1"
     inkscape:groupmode="layer"
     id="layer1"
     transform="translate(-53.64143,-50.880477)"><path
       id="path1"
       style="fill:#912ec1;stroke-width:0.129686;stroke-linejoin:round;stroke-miterlimit:4.2"
       d="m 153.64143,100.88048 c 0,27.61424 -22.38576,50 -50,50 -14.273,0 -12.555557,-16.62989 -21.665758,-26.22169 -8.515473,-8.96564 -28.334238,-10.43707 -28.334238,-23.77831 0,-6.227038 21.648291,-14.554737 23.728214,-20.053291 7.143639,-18.885172 4.884583,-29.946711 26.271782,-29.946711 10.85238,0 18.92511,30.672587 27.12102,36.546066 12.65884,9.071785 22.87898,-3.307924 22.87898,13.453936"
       sodipodi:nodetypes="cssssssc" /><path
       style="fill:#000000;stroke-width:0.190062"
       d="m 87.991465,131.15354 v -1.23203 h 5.752122 c 6.520763,0 6.06209,0.0286 6.539343,-0.40759 1.05343,-0.96278 0.84734,-3.00584 -0.363183,-3.60029 l -0.28677,-0.14082 -3.92241,-0.0275 c -3.815282,-0.0268 -3.93298,-0.0305 -4.309547,-0.13557 -1.331906,-0.37178 -2.367676,-1.22788 -2.955216,-2.44261 -0.559512,-1.15678 -0.572665,-2.66022 -0.03347,-3.82722 0.614071,-1.32908 1.796329,-2.27341 3.210273,-2.56423 0.340756,-0.0701 1.092928,-0.0797 6.22305,-0.0797 h 5.835443 v 1.2069 1.20689 h -5.698473 c -6.250304,0 -5.953576,-0.0139 -6.430349,0.30187 -0.578924,0.38346 -0.927891,1.32779 -0.798598,2.16107 0.09134,0.58875 0.233818,0.89396 0.577498,1.23713 0.528087,0.52732 0.20028,0.49118 4.756549,0.52437 3.90113,0.0284 3.951883,0.0301 4.315703,0.1411 1.55014,0.4731 2.71347,1.66769 3.13879,3.22315 0.14331,0.52407 0.15416,1.72441 0.0202,2.24247 -0.128,0.49529 -0.5274,1.29847 -0.85193,1.71324 -0.73951,0.94514 -1.85878,1.55109 -3.100383,1.6785 -0.32766,0.0336 -2.54117,0.0529 -6.06729,0.0529 h -5.551419 z m 16.242795,-6.61396 v -7.846 l 5.97162,0.0147 c 6.69162,0.0165 6.16555,-0.0126 7.03362,0.38934 1.33126,0.61649 2.26752,1.77369 2.56274,3.1675 0.10376,0.48985 0.14098,1.46356 0.079,2.06769 -0.20072,1.95788 -1.4357,3.42769 -3.36595,4.00599 -0.25952,0.0778 -0.73857,0.0887 -4.91398,0.11209 l -4.62643,0.0259 -0.013,2.95437 -0.013,2.95437 h -1.35736 -1.35735 z m 11.75277,-0.60839 c 0.39997,-0.14666 0.85247,-0.60469 1.01239,-1.02475 0.22136,-0.58147 0.26476,-1.71497 0.0905,-2.36351 -0.15957,-0.59388 -0.53889,-1.07272 -1.02932,-1.29938 -0.23458,-0.10841 -0.24542,-0.10869 -4.67298,-0.12255 l -4.43785,-0.0139 v 2.46539 2.46539 h 4.3731 c 4.33199,0 4.37585,-0.001 4.66415,-0.10671 z M 88.192615,110.53468 v -4.60238 l 0.968033,0.0137 0.968028,0.0136 0.01287,3.73383 0.01287,3.73384 h 1.709445 1.709446 v 0.85488 0.85488 h -2.690373 -2.690367 z m 6.386492,0.001 v -4.60128 h 0.95546 0.95545 v 4.60128 4.60129 h -0.95545 -0.95546 z m 5.632173,4.57693 c 0,-0.0134 -0.609153,-2.02174 -1.353663,-4.46299 -0.74451,-2.44125 -1.36927,-4.50087 -1.38835,-4.57694 l -0.0347,-0.13828 h 1.01119 c 0.55616,0 1.0112,0.008 1.0112,0.0187 0,0.046 1.608093,5.9308 1.625383,5.94809 0.0107,0.0106 0.2258,-0.74481 0.47809,-1.67883 0.25228,-0.93402 0.61445,-2.27527 0.80482,-2.98055 l 0.34614,-1.28232 1.01901,-0.0137 c 0.97838,-0.0131 1.01801,-0.01 0.99412,0.0815 -0.0137,0.0523 -0.64302,2.12339 -1.39851,4.60235 l -1.37364,4.50719 h -0.87055 c -0.4788,0 -0.87055,-0.0109 -0.87055,-0.0243 z m 5.48131,-4.58068 v -4.60505 l 2.17493,0.0198 c 1.85469,0.0169 2.21935,0.0324 2.47665,0.10542 1.06543,0.30216 1.78318,1.04008 2.06019,2.11803 0.0983,0.38255 0.0981,1.16355 -3.8e-4,1.58161 -0.11206,0.4754 -0.34448,0.9211 -0.65554,1.25708 -0.33902,0.36618 -0.67805,0.5882 -1.15553,0.75674 l -0.36552,0.12902 1.12653,1.6086 c 0.61959,0.88472 1.12676,1.61426 1.12704,1.62117 3.8e-4,0.007 -0.52562,0.0124 -1.16868,0.0121 l -1.16917,-3.8e-4 -1.02334,-1.58363 -1.02333,-1.58362 h -0.22127 -0.22128 v 1.58405 1.58405 h -0.9806 -0.9806 z m 3.94156,-0.32758 c 0.30221,-0.0839 0.6597,-0.47176 0.7633,-0.82814 0.15812,-0.54393 -0.0268,-1.16453 -0.44754,-1.50181 l -0.1931,-0.1548 -1.05151,-0.0154 -1.0515,-0.0154 v 1.28515 1.28515 l 0.8926,-1.9e-4 c 0.49093,-1.6e-4 0.98041,-0.0247 1.08775,-0.0545 z m 4.35585,0.33133 v -4.60128 h 2.89152 2.89152 v 0.88002 0.88003 h -1.93606 -1.93607 v 1.03089 1.03089 h 1.71099 1.71098 l -0.0138,0.84231 -0.0138,0.84231 -1.69828,0.0132 -1.69828,0.0132 0.0136,0.96736 0.0137,0.96736 1.97378,0.0132 1.97377,0.0132 v 0.8543 0.8543 h -2.9418 -2.94181 z M 93.230057,103.7676 c -0.40045,-0.0512 -0.611088,-0.11849 -0.982688,-0.31365 -0.599087,-0.31462 -1.12637,-1.00605 -1.312669,-1.7213 -0.09902,-0.38018 -0.09999,-1.22003 -0.0018,-1.59685 0.230012,-0.883072 0.848282,-1.577602 1.677682,-1.884622 0.412205,-0.15257 1.181255,-0.20685 1.608685,-0.11352 0.44395,0.0969 0.8899,0.33872 1.14211,0.61923 l 0.22352,0.24861 v -0.28589 c 0,-0.24893 0.019,-0.30489 0.14699,-0.43288 0.20505,-0.20505 0.49032,-0.20517 0.71967,-3.8e-4 l 0.16422,0.1467 0.0149,2.355092 c 0.008,1.2953 10e-4,2.43109 -0.0159,2.52399 -0.0741,0.40636 -0.58664,0.5587 -0.88293,0.26241 -0.12802,-0.12803 -0.14699,-0.18392 -0.14699,-0.43316 v -0.28616 l -0.23887,0.25027 c -0.51084,0.53525 -1.26438,0.77101 -2.11593,0.66202 z m 1.2854,-1.17517 c 1.08577,-0.48837 1.38487,-1.95347 0.58871,-2.883612 -0.23579,-0.27546 -0.79906,-0.55354 -1.20472,-0.59476 -0.38352,-0.039 -0.86139,0.0778 -1.195202,0.29199 -0.946089,0.607102 -1.050942,2.059422 -0.206352,2.858202 0.407274,0.38518 0.737324,0.50541 1.326904,0.48332 0.28351,-0.0106 0.45499,-0.0491 0.69066,-0.15514 z m 6.235733,1.17889 c -0.52935,-0.0668 -1.168293,-0.38631 -1.400523,-0.70042 -0.0626,-0.0846 -0.13214,-0.15387 -0.15459,-0.15387 -0.0225,0 -0.0408,0.11488 -0.0408,0.25531 0,0.21513 -0.0231,0.27843 -0.14699,0.40229 -0.11528,0.11529 -0.19206,0.14699 -0.35588,0.14699 -0.16382,0 -0.2406,-0.0317 -0.35588,-0.14699 l -0.147,-0.14699 v -4.004002 -4.00399 l 0.12139,-0.12139 c 0.0668,-0.0668 0.17991,-0.13607 0.25143,-0.15402 0.181,-0.0454 0.36857,0.011 0.51154,0.15402 l 0.12139,0.12139 v 1.76234 c 0,0.96929 0.0148,1.76234 0.0329,1.76234 0.0181,0 0.10605,-0.0849 0.19546,-0.18857 0.36395,-0.42219 0.992603,-0.66631 1.715803,-0.66631 0.53887,0 0.86328,0.0704 1.31737,0.28596 0.67389,0.31987 1.18226,0.96103 1.38787,1.750402 0.0989,0.37984 0.0991,1.16007 3.8e-4,1.57914 -0.32213,1.3666 -1.62299,2.24685 -3.05376,2.06637 z m 1.02011,-1.16369 c 1.12803,-0.51643 1.40743,-2.1017 0.52581,-2.983332 -0.86914,-0.86914 -2.410193,-0.59621 -2.933273,0.519492 -0.11621,0.24786 -0.13316,0.34803 -0.13316,0.78689 0,0.43661 0.0172,0.53962 0.1308,0.78175 0.33354,0.71111 0.942733,1.07092 1.755973,1.03713 0.27174,-0.0113 0.45573,-0.0512 0.65385,-0.14193 z m 8.07,1.18154 c -0.72334,-0.0806 -1.22997,-0.31571 -1.71441,-0.7955 -0.55112,-0.54582 -0.82336,-1.22793 -0.82336,-2.06299 0,-0.81742 0.273,-1.515262 0.799,-2.042442 0.54435,-0.54557 1.16728,-0.79879 1.96506,-0.79879 0.73909,0 1.31256,0.21351 1.74118,0.64828 l 0.22002,0.22317 v -0.20706 c 0,-0.27073 0.0873,-0.45381 0.25873,-0.54245 0.27362,-0.14149 0.62412,-0.0447 0.73723,0.20352 0.0439,0.0964 0.0601,0.78731 0.0601,2.572292 v 2.44044 l -0.147,0.14699 c -0.11515,0.11516 -0.19211,0.14699 -0.35531,0.14699 -0.11458,0 -0.25186,-0.0233 -0.30508,-0.0518 -0.14447,-0.0773 -0.24865,-0.31703 -0.24865,-0.57215 v -0.22664 l -0.22508,0.24063 c -0.25822,0.27605 -0.58471,0.46759 -0.98181,0.57598 -0.30173,0.0823 -0.74286,0.12801 -0.9806,0.10151 z m 0.88347,-1.10183 c 1.33608,-0.38559 1.7458,-2.14823 0.71775,-3.087812 -0.37034,-0.33847 -0.72726,-0.47122 -1.27436,-0.47396 -0.36382,-0.002 -0.47317,0.0187 -0.73471,0.13832 -0.74554,0.34081 -1.16854,1.148552 -1.02382,1.955022 0.0745,0.41536 0.19682,0.6836 0.42862,0.94017 0.47217,0.52264 1.1999,0.72642 1.88652,0.52826 z m 6.43332,1.07538 c -0.44039,-0.0605 -0.89839,-0.28316 -1.23246,-0.59911 l -0.27615,-0.26117 v 0.21094 c 0,0.241 -0.10712,0.48072 -0.24865,0.55646 -0.0532,0.0285 -0.1905,0.0518 -0.30508,0.0518 -0.1632,0 -0.24016,-0.0318 -0.35531,-0.14699 l -0.14699,-0.14699 v -3.975782 -3.97576 l 0.14673,-0.16423 c 0.12507,-0.13997 0.1806,-0.16423 0.37601,-0.16423 0.18349,0 0.25713,0.0279 0.36871,0.13938 l 0.13943,0.13938 0.0144,1.76166 0.0144,1.76166 0.21911,-0.22544 c 0.411,-0.42289 0.97995,-0.63327 1.71522,-0.63423 0.80689,-0.001 1.437,0.24734 1.96386,0.7742 0.54856,0.54855 0.79338,1.185282 0.79453,2.066432 6e-4,0.64834 -0.10819,1.07308 -0.40255,1.56815 -0.54924,0.92373 -1.64435,1.42066 -2.78528,1.26389 z m 1.1228,-1.18968 c 0.37938,-0.18677 0.64643,-0.46193 0.83161,-0.85687 0.11681,-0.24911 0.13252,-0.34522 0.13252,-0.81064 0,-0.47525 -0.014,-0.55636 -0.1394,-0.81178 -0.17012,-0.346312 -0.50188,-0.661472 -0.88268,-0.838542 -0.38305,-0.1781 -0.995,-0.1843 -1.42926,-0.0145 -1.05147,0.41118 -1.46266,1.754382 -0.83601,2.730932 0.46662,0.72717 1.51596,0.9988 2.32322,0.60138 z m -30.000274,1.09427 c -0.230701,-0.13437 -0.238864,-0.21817 -0.238864,-2.4524 v -2.109402 l -0.431796,-0.0178 c -0.400359,-0.0164 -0.440629,-0.028 -0.553161,-0.15882 -0.07485,-0.087 -0.120749,-0.20265 -0.119764,-0.30173 0.003,-0.31813 0.198382,-0.43721 0.71673,-0.43721 h 0.372929 l 0.02973,-0.6663 c 0.0429,-0.96137 0.226127,-1.48916 0.653972,-1.88353 0.289278,-0.26664 0.469256,-0.35743 0.882044,-0.44492 0.806605,-0.17096 1.21129,-0.0221 1.214009,0.44654 0.0018,0.29113 -0.213118,0.48634 -0.535597,0.48671 -0.518921,6.1e-4 -0.857435,0.19653 -1.039275,0.60151 -0.07928,0.17657 -0.107263,0.36681 -0.124138,0.84398 l -0.02175,0.61601 h 0.586658 c 0.555825,0 0.593147,0.006 0.710089,0.12343 0.173478,0.17347 0.170596,0.46842 -0.0062,0.63469 -0.118839,0.11177 -0.177416,0.12332 -0.704023,0.13881 l -0.574399,0.0169 v 2.161902 2.16189 l -0.146989,0.147 c -0.117958,0.11795 -0.189984,0.14669 -0.364585,0.14546 -0.119674,-6e-4 -0.257189,-0.0246 -0.305592,-0.0528 z m 16.955524,-0.0927 -0.147,-0.14699 0.001,-3.989142 c 10e-4,-3.70372 0.007,-3.99681 0.088,-4.0964 0.18189,-0.22455 0.41516,-0.27346 0.67164,-0.14083 0.30229,0.15632 0.29527,0.0554 0.29527,4.24105 0,2.258882 -0.0193,3.870912 -0.0472,3.944342 -0.13726,0.361 -0.59005,0.45976 -0.86183,0.18797 z m -6.292593,-13.750072 -4.71242,-2.72288 -0.002,-5.524002 -0.002,-5.523994 0.16343,0.09525 c 0.0899,0.05238 2.21704,1.280114 4.72701,2.72828 l 4.563563,2.633022 v 5.523804 c 0,3.03809 -0.005,5.52147 -0.0126,5.51861 -0.007,-0.003 -2.13316,-1.2305 -4.724983,-2.72809 z m 5.542153,-2.79084 v -5.519416 l 4.43469,-2.561908 c 2.43907,-1.40905 4.56623,-2.636769 4.727,-2.728256 l 0.29232,-0.166348 -0.001,5.52194 -0.001,5.521948 -3.73258,2.15128 c -2.05291,1.18321 -4.1795,2.40978 -4.72574,2.72573 l -0.99317,0.57444 z m -5.345583,-9.149891 c -4.53691,-2.625028 -4.90918,-2.850334 -4.80244,-2.90656 0.0636,-0.03353 2.27447,-1.30766 4.91297,-2.831411 2.638493,-1.523745 4.814583,-2.770453 4.835753,-2.770453 0.0212,0 2.20723,1.251983 4.85791,2.782187 2.65067,1.530203 4.86043,2.804807 4.91059,2.832449 0.075,0.04133 -0.78199,0.554636 -4.82102,2.887704 -2.70172,1.560595 -4.92648,2.840649 -4.94392,2.844564 -0.0174,0.0036 -2.24487,-1.273402 -4.949843,-2.83848 z"
       id="path2" /></g></svg>
